<svg xmlns="http://www.w3.org/2000/svg" xmlns:xlink="http://www.w3.org/1999/xlink" width="1000" zoomAndPan="magnify" viewBox="0 0 750 749.999995" height="1000" preserveAspectRatio="xMidYMid meet" version="1.0"><path fill="#ffffff" d="M 360.949219 701.796875 C 324.609375 701.792969 288.808594 701.78125 253.003906 701.789062 C 249.101562 701.789062 245.238281 701.992188 241.328125 702.550781 C 235.894531 703.328125 230.253906 703.523438 225.0625 701.011719 C 212.609375 694.984375 199.097656 692.367188 185.863281 688.984375 C 143.542969 678.164062 105.878906 659.195312 75.964844 626.695312 C 52.917969 601.65625 37.710938 572.53125 31.277344 538.90625 C 28.117188 522.402344 26.617188 505.757812 27.28125 489.058594 C 29.246094 439.691406 45.324219 395.523438 76.976562 357.226562 C 85.648438 346.734375 95.367188 337.613281 107.246094 330.386719 C 108.523438 332.933594 106.464844 334.105469 105.492188 335.496094 C 90.089844 357.605469 76.242188 380.566406 66.265625 405.71875 C 53.953125 436.757812 50.121094 469.144531 52.65625 502.09375 C 54.921875 531.523438 62.976562 559.464844 80.523438 583.890625 C 99.773438 610.691406 124.734375 630.523438 154.761719 644.035156 C 156.242188 644.699219 157.914062 645.875 160.097656 644.496094 C 158.871094 641.5625 155.953125 640.785156 153.648438 639.429688 C 129.445312 625.214844 107.769531 607.976562 91.269531 585.082031 C 81.710938 571.816406 73.046875 557.871094 64.515625 543.90625 C 57.621094 532.625 57.25 520.894531 63.683594 508.902344 C 72.207031 493 77.140625 475.601562 83.636719 458.859375 C 94.480469 430.90625 111.195312 407.539062 135.582031 389.90625 C 139.382812 387.15625 141.578125 383.871094 142.816406 379.261719 C 149.367188 354.886719 163.984375 336.507812 185.335938 323.277344 C 191.957031 319.175781 199.273438 316.964844 206.765625 315.417969 C 210.660156 314.613281 213.558594 312.828125 216.242188 310.015625 C 225.519531 300.308594 235.679688 291.710938 247.9375 285.894531 C 248.738281 285.511719 249.535156 284.882812 250.367188 284.820312 C 260.058594 284.089844 262.609375 277.789062 264.007812 269.265625 C 266.796875 252.25 272.886719 236.3125 282.78125 222.042969 C 285.175781 218.585938 284.703125 216.617188 281.128906 214.394531 C 270.660156 207.890625 263.09375 198.90625 259.234375 187.046875 C 250.96875 161.652344 261.449219 136.183594 287.445312 126.0625 C 298.371094 121.808594 309.324219 122.074219 320.441406 124.554688 C 324.039062 125.355469 326.875 125.109375 329.269531 121.710938 C 345.210938 99.101562 382.554688 102.359375 395.59375 130.449219 C 398.085938 135.816406 399.582031 141.5 400.5625 147.292969 C 401.023438 149.996094 402.292969 151.28125 404.90625 151.863281 C 436.242188 158.867188 464.242188 173.589844 491.863281 189.28125 C 508.90625 198.964844 527.511719 205.445312 544.882812 214.488281 C 550.40625 217.363281 555.777344 220.53125 561.351562 223.300781 C 571.398438 228.289062 571.523438 238.894531 568.425781 246.226562 C 566.667969 250.386719 563.984375 254.066406 560.957031 257.226562 C 547.046875 271.730469 533.589844 286.917969 513.722656 293.757812 C 510.886719 294.734375 509.171875 297.039062 507.300781 299.207031 C 496.332031 311.929688 482.054688 315.460938 465.949219 314.195312 C 456.90625 313.484375 447.984375 312.007812 439.03125 310.6875 C 433.460938 309.867188 431.183594 311.75 430.035156 317.210938 C 427.488281 329.371094 427.621094 329.515625 439.980469 332.351562 C 443.960938 333.265625 448.179688 333.890625 451.746094 335.710938 C 459.527344 339.675781 467.617188 340.207031 476.082031 339.851562 C 512.226562 338.34375 539.207031 353.769531 557.578125 384.625 C 559.644531 388.097656 561.859375 390.0625 566.207031 390.433594 C 580.429688 391.648438 593.804688 395.6875 605.414062 404.378906 C 607.683594 406.078125 609.300781 405.660156 610.824219 403.648438 C 623.640625 386.742188 636.253906 369.703125 641.949219 348.773438 C 643.394531 343.457031 640.191406 338.464844 635.195312 339.6875 C 622.828125 342.714844 611.949219 335.710938 600.050781 335.71875 C 592.660156 335.722656 586.957031 330.664062 582.242188 325.035156 C 581.183594 323.769531 580.160156 322.191406 580.503906 320.675781 C 582.046875 313.859375 578.839844 307.765625 577.890625 301.339844 C 577.132812 296.195312 578.09375 291.394531 581.332031 287.238281 C 588.679688 277.800781 597.070312 269.300781 605.769531 261.140625 C 614.648438 252.8125 624.953125 250.929688 636.398438 255.523438 C 657.734375 264.089844 676.332031 276.554688 691.617188 293.816406 C 695.191406 297.847656 696.46875 302.972656 697.558594 307.957031 C 704.273438 338.636719 711.058594 369.300781 715.25 400.472656 C 716.839844 412.296875 718 424.140625 718.210938 436.035156 C 718.691406 463.554688 711.800781 489.183594 697.503906 512.773438 C 695.476562 516.121094 693.625 519.578125 691.753906 523.019531 C 682.429688 540.203125 672.28125 545.125 653.480469 539.890625 C 637.550781 535.457031 621.242188 534.433594 605.003906 533.050781 C 571.996094 530.238281 540.320312 523.5 512.007812 505.230469 C 511.433594 504.859375 510.734375 504.671875 509.839844 504.292969 C 507.949219 507.40625 508.351562 510.925781 507.957031 514.082031 C 506.824219 523.191406 504.710938 532.125 500.496094 540.101562 C 494.558594 551.34375 492.066406 563.199219 490.519531 575.597656 C 488.882812 588.734375 484.480469 601.210938 479.117188 613.261719 C 477.390625 617.148438 476.675781 620.917969 476.539062 625.066406 C 475.769531 647.800781 474.964844 670.527344 469.253906 692.75 C 466.949219 701.738281 467.164062 701.792969 457.667969 701.796875 C 425.605469 701.796875 393.542969 701.796875 360.949219 701.796875 M 343.109375 482.339844 C 357.972656 484.839844 372.859375 485.125 387.621094 481.933594 C 404.351562 478.316406 417.730469 470.148438 423.976562 453.171875 C 428.328125 441.351562 427.34375 429.351562 424.628906 417.429688 C 418.695312 391.363281 405.675781 371.484375 377.8125 364.894531 C 376.605469 364.609375 375.425781 364.199219 374.230469 363.863281 C 354.140625 358.21875 334.789062 350.613281 315.851562 341.902344 C 314.953125 341.488281 313.652344 341.371094 313.828125 339.859375 C 314.421875 338.773438 315.277344 339.253906 316.121094 339.417969 C 333.734375 342.800781 351.371094 346.0625 368.945312 349.644531 C 372.332031 350.335938 373.863281 349.460938 374.597656 346.378906 C 341.15625 310.976562 334.691406 271.828125 339.757812 257.226562 C 341.570312 258.109375 341.847656 260.023438 342.640625 261.546875 C 354.101562 283.523438 372.523438 294.566406 396.988281 294.816406 C 418.351562 295.03125 439.597656 295.589844 460.78125 298.824219 C 467.457031 299.84375 474.640625 300.132812 481.402344 297.980469 C 485.304688 296.738281 486.046875 294.078125 483.125 291.890625 C 475.675781 286.308594 467.851562 281.535156 458.292969 280.257812 C 455.894531 279.933594 453.125 280.28125 450.75 278.65625 C 462.21875 268.578125 477.601562 262.480469 486.832031 264.238281 C 486.652344 266.195312 484.785156 267.0625 484.003906 268.628906 C 482.886719 270.886719 482.589844 272.855469 484.625 274.917969 C 490.445312 280.816406 502.703125 283.785156 510.441406 280.554688 C 522.683594 275.445312 532.625 267.195312 541.136719 257.125 C 543.625 254.179688 542.546875 251.699219 540.445312 249.082031 C 537.292969 245.15625 534.207031 240.878906 534.914062 235.617188 C 535.960938 227.878906 532.273438 224.050781 525.722656 220.9375 C 508.21875 212.613281 490.203125 205.300781 473.542969 195.253906 C 446.277344 178.816406 417.304688 167.042969 385.457031 163.34375 C 380.355469 162.75 375.078125 162.125 369.390625 163.4375 C 372.21875 167.699219 376.925781 169.210938 379.074219 173.613281 C 372.625 174.050781 366.5625 174.445312 361.003906 177.015625 C 357.21875 178.765625 355.105469 177.570312 353.480469 173.960938 C 350.082031 166.390625 344.878906 160.046875 339.085938 154.207031 C 330.386719 145.433594 320.621094 138.375 307.792969 137.457031 C 283.0625 135.6875 266.382812 159.40625 275.089844 183.742188 C 281.484375 201.613281 302.292969 216.238281 322.320312 216.886719 C 325.554688 216.992188 328.792969 216.902344 332.332031 216.902344 C 331.867188 218.382812 331.867188 218.890625 331.652344 219.003906 C 317.703125 226.433594 308.019531 238.070312 299.464844 250.992188 C 290.839844 264.019531 285.375 278.535156 279.082031 292.664062 C 277.167969 296.960938 274.578125 300.078125 270.375 302.242188 C 262.484375 306.304688 254.796875 310.753906 247.46875 316.136719 C 249.632812 318.007812 251.964844 318.972656 254.515625 319.769531 C 263.386719 322.542969 271.839844 326.164062 279.253906 332.003906 C 287.890625 338.8125 289.519531 348.195312 289.433594 358.285156 C 289.425781 359.296875 289.089844 360.445312 287.535156 360.5 C 287.199219 360.195312 286.734375 359.90625 286.449219 359.496094 C 273.148438 340.308594 254.375 331.554688 231.484375 330.707031 C 210.238281 329.917969 191.847656 336.488281 177.429688 352.484375 C 161.566406 370.082031 155.136719 391.398438 154.003906 414.582031 C 153.667969 421.414062 153.578125 428.285156 154.484375 435.230469 C 149.855469 430.601562 146.515625 425.226562 143.136719 419.878906 C 139.476562 414.09375 138.8125 413.789062 133.265625 417.980469 C 120.804688 427.394531 111.675781 439.515625 104.976562 453.582031 C 94.886719 474.769531 89.617188 498.046875 77.027344 518.140625 C 74.476562 522.210938 75 526.078125 76.597656 530.308594 C 79.910156 539.101562 85.875 546.300781 90.554688 554.265625 C 99.230469 569.023438 108.640625 583.277344 121.050781 595.289062 C 135.714844 609.476562 152.316406 621.082031 169.394531 632.113281 C 185.132812 642.273438 200.359375 653.125 211.972656 668.191406 C 215.234375 672.421875 218.214844 676.902344 221.792969 680.839844 C 226.796875 686.339844 232.800781 690.214844 240.699219 687.652344 C 244.722656 686.347656 248.480469 685.992188 252.691406 686.84375 C 258.746094 688.066406 266.335938 681.484375 264.050781 676.878906 C 260.65625 670.027344 264.800781 669.980469 269.238281 669.394531 C 270.296875 669.253906 271.363281 669.136719 272.410156 668.933594 C 280.832031 667.300781 289.433594 657.050781 281.6875 647.488281 C 279.226562 644.453125 277.132812 641.125 274.71875 638.050781 C 271.3125 633.71875 267.761719 629.496094 263.5 624.28125 C 272.105469 625.390625 277.09375 631.230469 283.929688 633.316406 C 284.199219 629.648438 282.15625 627.535156 280.105469 625.648438 C 269.214844 615.625 256.339844 614.085938 242.765625 618.082031 C 231.097656 621.519531 221.929688 618.15625 213.753906 609.878906 C 204.742188 600.757812 198.128906 590.101562 192.765625 578.546875 C 187.980469 568.226562 183.523438 557.777344 177.40625 548.066406 C 167.960938 533.070312 153.984375 522.277344 142.582031 509.117188 C 141.5 507.871094 139.5625 507.121094 140.058594 504.835938 C 142.097656 504.355469 143.359375 505.945312 144.945312 506.523438 C 155.304688 510.3125 165.605469 514.839844 177 512.304688 C 194.574219 508.394531 205.894531 496.695312 213.253906 481.082031 C 219.84375 467.105469 216.867188 456.347656 205.035156 446.4375 C 203.871094 445.460938 202.09375 445 201.730469 442.335938 C 232.246094 439.167969 256.636719 425.851562 271.867188 397.949219 C 272.03125 402.746094 272.269531 407.214844 271.34375 411.425781 C 267.886719 427.175781 272.246094 440.769531 282.753906 452.34375 C 298.65625 469.855469 319.371094 478.226562 343.109375 482.339844 M 311.476562 519.476562 C 320.191406 528.402344 331.648438 533.746094 341.183594 541.492188 C 340.792969 542.132812 340.71875 542.390625 340.621094 542.398438 C 339.75 542.472656 338.875 542.574219 338.007812 542.535156 C 322.617188 541.820312 307.761719 538.589844 293.351562 533.167969 C 291.769531 532.570312 289.921875 531.597656 288.449219 533.449219 C 286.925781 535.359375 288.527344 536.78125 289.4375 538.207031 C 296.390625 549.117188 304.703125 558.792969 315.5 566.085938 C 318.097656 567.839844 318.796875 569.464844 317.925781 572.691406 C 312.730469 591.96875 314.691406 610.378906 325.453125 627.515625 C 335.394531 643.347656 349.867188 653.570312 366.71875 660.875 C 373.859375 663.96875 375.476562 663.050781 374.347656 655.265625 C 372.074219 639.582031 372.003906 623.738281 370.375 608.015625 C 370.136719 605.726562 370.34375 603.386719 370.34375 601.070312 C 376.585938 614.207031 381.570312 627.523438 388.195312 640.101562 C 397.335938 657.457031 410.53125 670.238281 429.535156 676.5625 C 434.164062 678.105469 436.417969 676.722656 438.15625 672.542969 C 442.675781 661.675781 446.898438 650.667969 448.359375 638.960938 C 450.050781 625.402344 453.859375 613.015625 461.3125 601.230469 C 469.015625 589.058594 473.1875 575.125 469.523438 560.457031 C 468.011719 554.410156 468.539062 549.902344 473.199219 545.875 C 473.992188 545.1875 474.632812 544.277344 475.207031 543.386719 C 483.550781 530.390625 489.816406 517.09375 481.535156 501.554688 C 478.898438 496.605469 475.453125 492.394531 471.144531 488.824219 C 468.082031 486.289062 465.152344 483.59375 461.988281 480.816406 C 464.40625 479.347656 466.113281 480.257812 467.824219 480.53125 C 487.335938 483.652344 502.496094 474.046875 508.5 455.179688 C 511.035156 447.214844 511.867188 439.136719 511.242188 430.957031 C 509.414062 406.96875 500.394531 386.761719 479.019531 373.90625 C 463.796875 364.75 447.550781 363.359375 430.855469 369.769531 C 425.28125 371.910156 424.828125 373.558594 428.007812 378.277344 C 437.59375 392.5 443.617188 407.917969 446.175781 425.046875 C 450.230469 452.160156 439.785156 474.023438 415.003906 486.257812 C 388.453125 499.367188 360.21875 501.558594 331.25 498.089844 C 320.101562 496.753906 309.238281 494.207031 298.578125 490.703125 C 296.386719 489.980469 293.929688 489.042969 292.117188 491.199219 C 290.304688 493.351562 292.289062 495.261719 293.273438 496.988281 C 297.980469 505.242188 303.925781 512.535156 311.476562 519.476562 M 621.058594 447.398438 C 620.917969 455.328125 623.640625 463.164062 622.554688 472.300781 C 611.5625 462.199219 605.082031 451.128906 603.25 437.523438 C 602.316406 430.582031 600.921875 423.890625 596.207031 418.304688 C 583.375 403.09375 554.886719 399.402344 538.546875 410.917969 C 532.171875 415.40625 530.082031 420.925781 531.867188 428.550781 C 536.929688 450.191406 556.261719 467.65625 578.09375 470.3125 C 582.300781 470.824219 586.503906 471.355469 590.707031 471.878906 C 575.859375 478.832031 560.785156 480.574219 544.90625 475.457031 C 547.832031 480.652344 550.558594 485.113281 554.609375 488.777344 C 567.429688 500.375 582.609375 507.632812 598.792969 512.882812 C 619.140625 519.484375 640.613281 520.867188 661.367188 525.671875 C 665.855469 526.707031 670.359375 526.046875 673.234375 521.65625 C 683.6875 505.703125 693.753906 489.554688 698.453125 470.75 C 704.972656 444.671875 702.878906 418.496094 698.824219 392.421875 C 695.523438 371.210938 691.429688 350.125 687.582031 329.003906 C 685.363281 316.84375 682.460938 304.855469 673.648438 295.492188 C 662.242188 283.375 648.667969 274.410156 632.957031 268.820312 C 627.464844 266.867188 622.070312 267.234375 617.136719 270.578125 C 608.800781 276.222656 601.566406 283.042969 596.054688 291.503906 C 592.257812 297.335938 592.246094 304.234375 595.601562 308.570312 C 598.378906 312.160156 601.863281 311.925781 604.050781 307.945312 C 605.421875 305.453125 606.410156 302.714844 608.007812 300.390625 C 611.246094 295.691406 615.082031 291.664062 621.339844 291.273438 C 622.285156 293.628906 621.054688 295.105469 620.117188 296.519531 C 617.511719 300.460938 616.289062 304.925781 615.074219 309.382812 C 613.945312 313.53125 614.519531 317.539062 617.054688 321.089844 C 619.796875 324.933594 623.644531 326.460938 628.246094 325.679688 C 632.839844 324.894531 633.300781 321.328125 633.324219 317.554688 C 633.328125 316.878906 633.542969 316.132812 635.363281 315.890625 C 641.984375 325.953125 652.308594 329.367188 664.664062 327.898438 C 664.476562 329.503906 664.515625 330.21875 664.304688 330.855469 C 657.132812 352.332031 649.125 373.453125 636.46875 392.433594 C 625.554688 408.800781 620.289062 426.707031 621.058594 447.398438 M 239.417969 603.710938 C 248.445312 600.914062 257.621094 601.101562 266.835938 602.390625 C 271.605469 603.054688 275.066406 600.894531 274.511719 597.125 C 273.679688 591.445312 273.945312 585.753906 274.121094 580.09375 C 274.265625 575.476562 272.503906 572.320312 268.871094 569.753906 C 265.101562 567.089844 261.351562 564.363281 257.855469 561.359375 C 243.957031 549.417969 232.890625 535.136719 223.601562 519.410156 C 222.347656 517.289062 221.199219 514.378906 218.023438 516.519531 C 209.175781 522.492188 199.640625 527.140625 189.582031 531.074219 C 189.976562 532.652344 190.09375 533.71875 190.5 534.660156 C 197.085938 550.007812 203.234375 565.5625 211.308594 580.226562 C 215.519531 587.878906 220.40625 595.054688 226.992188 600.972656 C 230.421875 604.054688 233.953125 605.878906 239.417969 603.710938 Z M 239.417969 603.710938 " fill-opacity="1" fill-rule="nonzero"/><path fill="#ffffff" d="M 302.492188 191.171875 C 298.722656 186.542969 296.105469 181.863281 295.148438 176.191406 C 293.949219 169.066406 296.015625 162.179688 300.871094 159.132812 C 306.046875 155.882812 313.746094 156.597656 319.359375 161.058594 C 328.550781 168.359375 334.285156 178.140625 338.539062 188.832031 C 340.292969 193.234375 342.277344 197.664062 342.394531 203.058594 C 327.402344 204.839844 313.222656 204.71875 302.492188 191.171875 Z M 302.492188 191.171875 " fill-opacity="1" fill-rule="nonzero"/><path fill="#ffffff" d="M 430.035156 216.878906 C 426.175781 214.375 423.980469 210.929688 421.546875 207.640625 C 419.222656 204.5 416.976562 200.871094 411.792969 201.714844 C 416.015625 197.472656 421.375 196.257812 426.863281 195.5625 C 433.636719 194.703125 439.90625 196.558594 445.683594 199.972656 C 449.648438 202.316406 453.367188 205.070312 457.292969 207.488281 C 461.039062 209.792969 464.90625 211.898438 469.214844 214.375 C 466.335938 216.25 463.464844 214.949219 460.886719 215.449219 C 456.199219 216.363281 451.375 216.832031 446.851562 218.253906 C 441.066406 220.070312 435.710938 219.703125 430.035156 216.878906 Z M 430.035156 216.878906 " fill-opacity="1" fill-rule="nonzero"/><path fill="#ffffff" d="M 417.375 548.355469 C 433.964844 539.226562 440.792969 524.523438 443.140625 507.121094 C 450.777344 514.148438 450.734375 538.042969 440.925781 549.347656 C 433.535156 557.863281 415.734375 560.734375 405.289062 554.324219 C 408.472656 550.730469 413.566406 551.203125 417.375 548.355469 Z M 417.375 548.355469 " fill-opacity="1" fill-rule="nonzero"/><path fill="#ffffff" d="M 444.601562 593.09375 C 441.304688 608.289062 434.933594 615.550781 423.421875 616.925781 C 418.148438 617.554688 412.960938 616.640625 407.042969 612.472656 C 427.210938 607.296875 435.710938 592.78125 440.800781 574.445312 C 445.414062 580.683594 444.613281 586.730469 444.601562 593.09375 Z M 444.601562 593.09375 " fill-opacity="1" fill-rule="nonzero"/></svg>