<svg xmlns="http://www.w3.org/2000/svg" xmlns:xlink="http://www.w3.org/1999/xlink" width="1000" zoomAndPan="magnify" viewBox="0 0 750 749.999995" height="1000" preserveAspectRatio="xMidYMid meet" version="1.0"><defs><g/></defs><path fill="#023b7a" d="M 382.136719 601.957031 C 349.613281 601.953125 317.570312 601.941406 285.523438 601.949219 C 282.03125 601.949219 278.578125 602.132812 275.074219 602.632812 C 270.214844 603.328125 265.164062 603.503906 260.515625 601.253906 C 249.371094 595.859375 237.277344 593.515625 225.433594 590.488281 C 187.554688 580.804688 153.84375 563.828125 127.070312 534.738281 C 106.441406 512.328125 92.835938 486.261719 87.074219 456.167969 C 84.246094 441.394531 82.902344 426.5 83.5 411.554688 C 85.257812 367.367188 99.644531 327.835938 127.976562 293.558594 C 135.738281 284.167969 144.4375 276.003906 155.066406 269.535156 C 156.210938 271.816406 154.367188 272.863281 153.5 274.113281 C 139.714844 293.898438 127.320312 314.449219 118.390625 336.960938 C 107.371094 364.742188 103.941406 393.726562 106.210938 423.21875 C 108.238281 449.558594 115.449219 474.566406 131.148438 496.429688 C 148.378906 520.417969 170.71875 538.164062 197.597656 550.257812 C 198.921875 550.855469 200.417969 551.90625 202.371094 550.671875 C 201.273438 548.046875 198.660156 547.351562 196.597656 546.140625 C 174.9375 533.414062 155.535156 517.988281 140.769531 497.496094 C 132.210938 485.621094 124.460938 473.140625 116.824219 460.640625 C 110.652344 450.542969 110.324219 440.042969 116.078125 429.3125 C 123.707031 415.082031 128.125 399.507812 133.9375 384.523438 C 143.644531 359.503906 158.601562 338.589844 180.429688 322.808594 C 183.832031 320.347656 185.796875 317.40625 186.902344 313.28125 C 192.765625 291.464844 205.851562 275.015625 224.960938 263.175781 C 230.886719 259.503906 237.433594 257.523438 244.140625 256.140625 C 247.628906 255.421875 250.21875 253.824219 252.625 251.304688 C 260.925781 242.617188 270.019531 234.921875 280.988281 229.714844 C 281.707031 229.371094 282.417969 228.808594 283.164062 228.753906 C 291.839844 228.101562 294.125 222.460938 295.375 214.832031 C 297.871094 199.601562 303.320312 185.339844 312.175781 172.566406 C 314.320312 169.472656 313.894531 167.710938 310.695312 165.722656 C 301.328125 159.898438 294.558594 151.859375 291.101562 141.246094 C 283.703125 118.515625 293.082031 95.722656 316.351562 86.660156 C 326.128906 82.855469 335.933594 83.09375 345.882812 85.3125 C 349.101562 86.03125 351.640625 85.808594 353.785156 82.765625 C 368.050781 62.53125 401.476562 65.449219 413.144531 90.585938 C 415.375 95.390625 416.714844 100.476562 417.59375 105.664062 C 418.003906 108.082031 419.140625 109.234375 421.480469 109.757812 C 449.527344 116.023438 474.589844 129.203125 499.308594 143.246094 C 514.5625 151.914062 531.214844 157.714844 546.761719 165.804688 C 551.707031 168.378906 556.515625 171.214844 561.503906 173.691406 C 570.496094 178.15625 570.605469 187.648438 567.835938 194.210938 C 566.261719 197.933594 563.859375 201.230469 561.148438 204.054688 C 548.699219 217.039062 536.65625 230.632812 518.875 236.75 C 516.335938 237.625 514.800781 239.691406 513.128906 241.632812 C 503.308594 253.015625 490.527344 256.179688 476.117188 255.046875 C 468.023438 254.410156 460.039062 253.089844 452.023438 251.90625 C 447.039062 251.171875 445 252.855469 443.972656 257.746094 C 441.691406 268.628906 441.8125 268.757812 452.875 271.296875 C 456.4375 272.113281 460.210938 272.671875 463.40625 274.300781 C 470.367188 277.851562 477.609375 278.328125 485.1875 278.011719 C 517.535156 276.65625 541.679688 290.464844 558.125 318.082031 C 559.976562 321.191406 561.957031 322.949219 565.847656 323.28125 C 578.578125 324.367188 590.550781 327.980469 600.9375 335.761719 C 602.96875 337.285156 604.417969 336.910156 605.78125 335.109375 C 617.25 319.976562 628.542969 304.726562 633.640625 285.996094 C 634.933594 281.234375 632.066406 276.765625 627.597656 277.859375 C 616.523438 280.570312 606.789062 274.304688 596.136719 274.308594 C 589.523438 274.3125 584.421875 269.785156 580.199219 264.746094 C 579.25 263.613281 578.335938 262.203125 578.644531 260.847656 C 580.027344 254.742188 577.15625 249.292969 576.308594 243.539062 C 575.628906 238.933594 576.484375 234.640625 579.382812 230.917969 C 585.960938 222.46875 593.472656 214.863281 601.257812 207.558594 C 609.203125 200.105469 618.425781 198.421875 628.671875 202.535156 C 647.765625 210.199219 664.414062 221.355469 678.09375 236.804688 C 681.292969 240.414062 682.4375 245 683.414062 249.460938 C 689.421875 276.921875 695.492188 304.367188 699.246094 332.265625 C 700.667969 342.851562 701.707031 353.449219 701.894531 364.09375 C 702.324219 388.726562 696.15625 411.664062 683.363281 432.777344 C 681.546875 435.773438 679.890625 438.867188 678.21875 441.949219 C 669.871094 457.328125 660.785156 461.734375 643.960938 457.050781 C 629.703125 453.082031 615.105469 452.164062 600.570312 450.925781 C 571.03125 448.40625 542.679688 442.375 517.339844 426.027344 C 516.824219 425.691406 516.199219 425.527344 515.398438 425.1875 C 513.707031 427.972656 514.066406 431.125 513.714844 433.945312 C 512.699219 442.101562 510.808594 450.097656 507.035156 457.234375 C 501.71875 467.296875 499.488281 477.910156 498.105469 489.003906 C 496.640625 500.761719 492.703125 511.929688 487.902344 522.71875 C 486.355469 526.195312 485.71875 529.566406 485.59375 533.28125 C 484.90625 553.628906 484.183594 573.96875 479.074219 593.859375 C 477.007812 601.902344 477.203125 601.957031 468.703125 601.957031 C 440.007812 601.957031 411.3125 601.957031 382.136719 601.957031 M 366.171875 405.539062 C 379.472656 407.777344 392.796875 408.03125 406.011719 405.175781 C 420.984375 401.9375 432.960938 394.628906 438.550781 379.433594 C 442.441406 368.855469 441.5625 358.113281 439.136719 347.445312 C 433.820312 324.113281 422.167969 306.320312 397.230469 300.421875 C 396.148438 300.167969 395.09375 299.800781 394.023438 299.5 C 376.046875 294.445312 358.722656 287.640625 341.777344 279.84375 C 340.972656 279.472656 339.804688 279.371094 339.964844 278.015625 C 340.496094 277.042969 341.261719 277.472656 342.015625 277.621094 C 357.78125 280.648438 373.566406 283.566406 389.292969 286.773438 C 392.328125 287.390625 393.699219 286.609375 394.355469 283.851562 C 364.425781 252.164062 358.636719 217.125 363.171875 204.054688 C 364.792969 204.84375 365.042969 206.558594 365.753906 207.921875 C 376.007812 227.59375 392.5 237.480469 414.394531 237.699219 C 433.515625 237.894531 452.527344 238.394531 471.492188 241.289062 C 477.464844 242.199219 483.894531 242.457031 489.949219 240.53125 C 493.441406 239.421875 494.105469 237.039062 491.488281 235.082031 C 484.820312 230.085938 477.816406 225.8125 469.265625 224.667969 C 467.117188 224.382812 464.636719 224.691406 462.511719 223.238281 C 472.777344 214.21875 486.542969 208.761719 494.804688 210.332031 C 494.644531 212.082031 492.972656 212.859375 492.277344 214.265625 C 491.273438 216.285156 491.011719 218.046875 492.832031 219.890625 C 498.039062 225.171875 509.011719 227.828125 515.9375 224.9375 C 526.894531 220.363281 535.789062 212.976562 543.410156 203.96875 C 545.636719 201.332031 544.671875 199.113281 542.789062 196.765625 C 539.972656 193.253906 537.207031 189.425781 537.84375 184.714844 C 538.777344 177.792969 535.476562 174.367188 529.613281 171.578125 C 513.945312 164.128906 497.820312 157.582031 482.910156 148.589844 C 458.511719 133.878906 432.578125 123.339844 404.074219 120.027344 C 399.507812 119.5 394.785156 118.9375 389.691406 120.113281 C 392.222656 123.929688 396.4375 125.28125 398.359375 129.21875 C 392.585938 129.613281 387.160156 129.964844 382.1875 132.265625 C 378.800781 133.832031 376.90625 132.765625 375.457031 129.535156 C 372.410156 122.753906 367.753906 117.078125 362.570312 111.851562 C 354.78125 104 346.042969 97.683594 334.5625 96.863281 C 312.425781 95.277344 297.496094 116.503906 305.292969 138.285156 C 311.015625 154.28125 329.640625 167.371094 347.5625 167.953125 C 350.457031 168.046875 353.359375 167.964844 356.523438 167.964844 C 356.109375 169.292969 356.109375 169.746094 355.917969 169.847656 C 343.433594 176.496094 334.765625 186.910156 327.109375 198.476562 C 319.390625 210.136719 314.5 223.128906 308.867188 235.773438 C 307.152344 239.621094 304.832031 242.410156 301.070312 244.347656 C 294.011719 247.980469 287.132812 251.964844 280.570312 256.78125 C 282.507812 258.460938 284.59375 259.320312 286.878906 260.035156 C 294.820312 262.515625 302.382812 265.757812 309.019531 270.984375 C 316.75 277.078125 318.207031 285.476562 318.128906 294.507812 C 318.121094 295.410156 317.824219 296.441406 316.429688 296.488281 C 316.128906 296.214844 315.714844 295.960938 315.460938 295.589844 C 303.554688 278.417969 286.753906 270.582031 266.265625 269.820312 C 247.246094 269.117188 230.789062 275 217.886719 289.3125 C 203.683594 305.066406 197.933594 324.144531 196.917969 344.894531 C 196.617188 351.007812 196.535156 357.160156 197.347656 363.375 C 193.203125 359.230469 190.21875 354.417969 187.191406 349.636719 C 183.914062 344.457031 183.324219 344.183594 178.355469 347.933594 C 167.203125 356.363281 159.03125 367.207031 153.035156 379.800781 C 144.007812 398.765625 139.292969 419.597656 128.023438 437.578125 C 125.738281 441.222656 126.207031 444.683594 127.636719 448.472656 C 130.601562 456.339844 135.941406 462.785156 140.128906 469.910156 C 147.894531 483.121094 156.316406 495.878906 167.425781 506.628906 C 180.546875 519.328125 195.40625 529.714844 210.695312 539.585938 C 224.78125 548.683594 238.40625 558.394531 248.800781 571.878906 C 251.71875 575.664062 254.386719 579.675781 257.59375 583.199219 C 262.070312 588.121094 267.445312 591.59375 274.511719 589.296875 C 278.113281 588.128906 281.476562 587.808594 285.246094 588.570312 C 290.664062 589.667969 297.457031 583.777344 295.414062 579.65625 C 292.375 573.523438 296.085938 573.480469 300.058594 572.953125 C 301.003906 572.828125 301.957031 572.722656 302.894531 572.542969 C 310.433594 571.082031 318.128906 561.910156 311.195312 553.351562 C 308.996094 550.632812 307.121094 547.652344 304.960938 544.902344 C 301.910156 541.023438 298.734375 537.246094 294.921875 532.578125 C 302.621094 533.570312 307.085938 538.796875 313.203125 540.664062 C 313.445312 537.382812 311.617188 535.488281 309.78125 533.800781 C 300.035156 524.832031 288.511719 523.453125 276.359375 527.03125 C 265.917969 530.105469 257.714844 527.097656 250.394531 519.691406 C 242.328125 511.523438 236.410156 501.988281 231.613281 491.644531 C 227.328125 482.40625 223.339844 473.054688 217.863281 464.363281 C 209.410156 450.941406 196.898438 441.28125 186.695312 429.503906 C 185.726562 428.386719 183.992188 427.71875 184.433594 425.671875 C 186.261719 425.246094 187.390625 426.664062 188.8125 427.183594 C 198.082031 430.574219 207.300781 434.625 217.5 432.359375 C 233.226562 428.859375 243.363281 418.386719 249.949219 404.414062 C 255.84375 391.902344 253.183594 382.273438 242.59375 373.402344 C 241.550781 372.53125 239.957031 372.117188 239.632812 369.734375 C 266.949219 366.898438 288.777344 354.980469 302.40625 330.007812 C 302.554688 334.296875 302.765625 338.296875 301.9375 342.070312 C 298.84375 356.167969 302.746094 368.332031 312.152344 378.691406 C 326.386719 394.367188 344.921875 401.855469 366.171875 405.539062 M 337.859375 438.777344 C 345.65625 446.765625 355.914062 451.546875 364.449219 458.480469 C 364.097656 459.054688 364.03125 459.285156 363.945312 459.292969 C 363.164062 459.355469 362.382812 459.449219 361.605469 459.414062 C 347.832031 458.773438 334.53125 455.882812 321.636719 451.027344 C 320.222656 450.496094 318.566406 449.625 317.246094 451.28125 C 315.882812 452.992188 317.320312 454.261719 318.132812 455.542969 C 324.355469 465.308594 331.796875 473.964844 341.460938 480.492188 C 343.785156 482.0625 344.410156 483.515625 343.632812 486.40625 C 338.980469 503.65625 340.734375 520.136719 350.367188 535.472656 C 359.265625 549.644531 372.21875 558.792969 387.304688 565.332031 C 393.691406 568.101562 395.140625 567.277344 394.128906 560.308594 C 392.09375 546.273438 392.03125 532.09375 390.574219 518.023438 C 390.363281 515.972656 390.546875 513.878906 390.546875 511.804688 C 396.132812 523.5625 400.59375 535.480469 406.523438 546.738281 C 414.707031 562.273438 426.515625 573.710938 443.523438 579.371094 C 447.667969 580.75 449.683594 579.515625 451.242188 575.773438 C 455.285156 566.046875 459.066406 556.195312 460.375 545.71875 C 461.886719 533.582031 465.296875 522.496094 471.96875 511.949219 C 478.859375 501.050781 482.59375 488.582031 479.3125 475.457031 C 477.960938 470.042969 478.433594 466.007812 482.605469 462.402344 C 483.316406 461.789062 483.886719 460.976562 484.402344 460.175781 C 491.871094 448.546875 497.476562 436.644531 490.066406 422.734375 C 487.703125 418.304688 484.621094 414.535156 480.765625 411.339844 C 478.023438 409.070312 475.402344 406.660156 472.570312 404.171875 C 474.734375 402.859375 476.261719 403.675781 477.792969 403.917969 C 495.253906 406.714844 508.828125 398.117188 514.199219 381.230469 C 516.46875 374.101562 517.214844 366.871094 516.65625 359.550781 C 515.015625 338.082031 506.945312 319.992188 487.816406 308.488281 C 474.191406 300.292969 459.648438 299.046875 444.707031 304.785156 C 439.714844 306.703125 439.308594 308.179688 442.15625 312.398438 C 450.734375 325.128906 456.128906 338.929688 458.417969 354.257812 C 462.046875 378.527344 452.695312 398.09375 430.515625 409.042969 C 406.753906 420.777344 381.484375 422.738281 355.558594 419.632812 C 345.578125 418.4375 335.855469 416.160156 326.316406 413.023438 C 324.351562 412.378906 322.15625 411.539062 320.53125 413.464844 C 318.910156 415.394531 320.683594 417.101562 321.566406 418.648438 C 325.78125 426.039062 331.101562 432.5625 337.859375 438.777344 M 614.941406 374.265625 C 614.816406 381.363281 617.253906 388.375 616.28125 396.550781 C 606.441406 387.511719 600.644531 377.605469 599.003906 365.429688 C 598.167969 359.214844 596.917969 353.226562 592.699219 348.226562 C 581.214844 334.609375 555.71875 331.308594 541.089844 341.613281 C 535.386719 345.632812 533.515625 350.570312 535.113281 357.394531 C 539.644531 376.765625 556.949219 392.394531 576.488281 394.773438 C 580.253906 395.234375 584.015625 395.707031 587.777344 396.175781 C 574.488281 402.402344 560.996094 403.957031 546.785156 399.378906 C 549.402344 404.027344 551.84375 408.019531 555.46875 411.300781 C 566.941406 421.679688 580.527344 428.175781 595.011719 432.875 C 613.226562 438.785156 632.445312 440.019531 651.019531 444.320312 C 655.035156 445.25 659.066406 444.65625 661.640625 440.726562 C 670.996094 426.449219 680.007812 411.996094 684.214844 395.164062 C 690.046875 371.824219 688.171875 348.398438 684.542969 325.058594 C 681.589844 306.078125 677.925781 287.203125 674.480469 268.296875 C 672.496094 257.417969 669.898438 246.6875 662.011719 238.304688 C 651.800781 227.460938 639.652344 219.4375 625.589844 214.433594 C 620.675781 212.6875 615.847656 213.015625 611.433594 216.003906 C 603.972656 221.058594 597.496094 227.164062 592.5625 234.738281 C 589.164062 239.957031 589.152344 246.132812 592.15625 250.011719 C 594.644531 253.222656 597.761719 253.015625 599.71875 249.449219 C 600.945312 247.21875 601.832031 244.769531 603.261719 242.691406 C 606.160156 238.484375 609.59375 234.878906 615.195312 234.527344 C 616.039062 236.636719 614.9375 237.957031 614.101562 239.226562 C 611.769531 242.753906 610.675781 246.75 609.585938 250.738281 C 608.574219 254.449219 609.089844 258.039062 611.359375 261.214844 C 613.8125 264.65625 617.257812 266.023438 621.375 265.324219 C 625.484375 264.621094 625.898438 261.429688 625.917969 258.050781 C 625.921875 257.445312 626.117188 256.777344 627.746094 256.5625 C 633.671875 265.570312 642.910156 268.625 653.96875 267.3125 C 653.804688 268.746094 653.835938 269.386719 653.648438 269.957031 C 647.230469 289.179688 640.058594 308.082031 628.734375 325.070312 C 618.964844 339.71875 614.25 355.746094 614.941406 374.265625 M 273.367188 514.167969 C 281.445312 511.664062 289.660156 511.832031 297.90625 512.984375 C 302.171875 513.582031 305.269531 511.648438 304.773438 508.273438 C 304.03125 503.191406 304.269531 498.097656 304.425781 493.027344 C 304.554688 488.898438 302.980469 486.070312 299.726562 483.773438 C 296.355469 481.390625 292.996094 478.949219 289.867188 476.261719 C 277.429688 465.574219 267.523438 452.792969 259.210938 438.71875 C 258.089844 436.816406 257.058594 434.214844 254.21875 436.128906 C 246.296875 441.472656 237.765625 445.632812 228.761719 449.15625 C 229.113281 450.570312 229.21875 451.523438 229.582031 452.363281 C 235.476562 466.101562 240.980469 480.023438 248.207031 493.148438 C 251.976562 500 256.347656 506.421875 262.242188 511.71875 C 265.3125 514.476562 268.472656 516.105469 273.367188 514.167969 Z M 273.367188 514.167969 " fill-opacity="1" fill-rule="nonzero"/><path fill="#023b7a" d="M 329.816406 144.9375 C 326.445312 140.792969 324.101562 136.605469 323.246094 131.527344 C 322.171875 125.152344 324.019531 118.988281 328.367188 116.257812 C 333 113.351562 339.890625 113.992188 344.914062 117.984375 C 353.144531 124.519531 358.273438 133.273438 362.082031 142.84375 C 363.648438 146.78125 365.425781 150.75 365.53125 155.578125 C 352.113281 157.167969 339.421875 157.0625 329.816406 144.9375 Z M 329.816406 144.9375 " fill-opacity="1" fill-rule="nonzero"/><path fill="#023b7a" d="M 443.972656 167.945312 C 440.515625 165.703125 438.554688 162.621094 436.375 159.675781 C 434.292969 156.867188 432.285156 153.617188 427.644531 154.371094 C 431.421875 150.578125 436.21875 149.488281 441.132812 148.867188 C 447.195312 148.097656 452.804688 149.757812 457.976562 152.8125 C 461.527344 154.910156 464.855469 157.378906 468.367188 159.539062 C 471.71875 161.605469 475.183594 163.488281 479.039062 165.703125 C 476.460938 167.382812 473.894531 166.21875 471.585938 166.667969 C 467.390625 167.484375 463.074219 167.902344 459.023438 169.175781 C 453.847656 170.800781 449.054688 170.472656 443.972656 167.945312 Z M 443.972656 167.945312 " fill-opacity="1" fill-rule="nonzero"/><path fill="#023b7a" d="M 432.640625 464.625 C 447.488281 456.453125 453.601562 443.292969 455.699219 427.71875 C 462.535156 434.007812 462.5 455.394531 453.71875 465.511719 C 447.105469 473.132812 431.171875 475.703125 421.824219 469.964844 C 424.671875 466.75 429.234375 467.171875 432.640625 464.625 Z M 432.640625 464.625 " fill-opacity="1" fill-rule="nonzero"/><path fill="#023b7a" d="M 457.007812 504.664062 C 454.058594 518.265625 448.355469 524.765625 438.050781 525.996094 C 433.335938 526.558594 428.691406 525.742188 423.394531 522.007812 C 441.441406 517.375 449.050781 504.386719 453.609375 487.972656 C 457.738281 493.558594 457.019531 498.96875 457.007812 504.664062 Z M 457.007812 504.664062 " fill-opacity="1" fill-rule="nonzero"/><g fill="#023b7a" fill-opacity="1"><g transform="translate(75.059732, 696.318932)"><g><path d="M 45.625 0 L 42.90625 -5.515625 C 41.96875 -3.878906 40.226562 -2.421875 37.6875 -1.140625 C 35.15625 0.140625 32.195312 0.78125 28.8125 0.78125 C 23.726562 0.78125 19.097656 -0.472656 14.921875 -2.984375 C 10.753906 -5.492188 7.441406 -9.050781 4.984375 -13.65625 C 2.535156 -18.269531 1.3125 -23.726562 1.3125 -30.03125 C 1.3125 -34.820312 2.054688 -39.1875 3.546875 -43.125 C 5.035156 -47.0625 7.0625 -50.457031 9.625 -53.3125 C 12.195312 -56.175781 15.085938 -58.378906 18.296875 -59.921875 C 21.503906 -61.472656 24.800781 -62.25 28.1875 -62.25 C 31.34375 -62.25 33.957031 -61.941406 36.03125 -61.328125 C 38.101562 -60.722656 39.75 -59.984375 40.96875 -59.109375 C 42.195312 -58.234375 43.132812 -57.398438 43.78125 -56.609375 C 44.425781 -55.816406 44.921875 -55.25 45.265625 -54.90625 L 47.109375 -61.203125 L 60.15625 -61.203125 L 60.15625 -35.375 L 44.484375 -35.375 C 44.367188 -38.9375 43.316406 -41.679688 41.328125 -43.609375 C 39.347656 -45.535156 37.070312 -46.5 34.5 -46.5 C 32.164062 -46.5 30.09375 -45.738281 28.28125 -44.21875 C 26.46875 -42.695312 25.050781 -40.679688 24.03125 -38.171875 C 23.007812 -35.660156 22.5 -32.945312 22.5 -30.03125 C 22.5 -27.050781 22.96875 -24.347656 23.90625 -21.921875 C 24.84375 -19.503906 26.210938 -17.566406 28.015625 -16.109375 C 29.828125 -14.648438 31.988281 -13.921875 34.5 -13.921875 C 37.007812 -13.921875 38.875 -14.359375 40.09375 -15.234375 C 41.320312 -16.109375 42.257812 -17.101562 42.90625 -18.21875 L 42.90625 -21.890625 L 37.5625 -21.890625 L 37.5625 -31.265625 L 66.640625 -31.265625 L 66.640625 -21.890625 L 63.125 -21.890625 L 63.125 0 Z M 45.625 0 "/></g></g></g><g fill="#023b7a" fill-opacity="1"><g transform="translate(146.073801, 696.318932)"><g><path d="M 33.453125 -32.65625 L 29.421875 -32.65625 L 29.421875 -43.78125 L 51.65625 -43.78125 L 51.65625 -32.921875 L 47.453125 -32.921875 L 30.828125 7.53125 C 30.179688 8.875 29.429688 10.273438 28.578125 11.734375 C 27.734375 13.191406 26.609375 14.53125 25.203125 15.75 C 23.804688 16.976562 22.039062 17.972656 19.90625 18.734375 C 17.78125 19.492188 15.144531 19.875 12 19.875 C 9.71875 19.757812 7.71875 19.273438 6 18.421875 C 4.28125 17.578125 2.75 16.601562 1.40625 15.5 L 7.96875 5.171875 C 8.726562 5.804688 9.53125 6.414062 10.375 7 C 11.21875 7.582031 12.109375 7.960938 13.046875 8.140625 C 14.390625 8.378906 15.554688 7.984375 16.546875 6.953125 C 17.535156 5.929688 18.238281 4.78125 18.65625 3.5 L 19.875 -0.171875 L 2.796875 -32.578125 L -0.78125 -32.578125 L -0.78125 -43.78125 L 26.1875 -43.78125 L 26.1875 -32.65625 L 22.0625 -32.65625 L 27.75 -19 Z M 33.453125 -32.65625 "/></g></g></g><g fill="#023b7a" fill-opacity="1"><g transform="translate(199.925462, 696.318932)"><g><path d="M 28.1875 0 L 2.1875 0 L 2.1875 -11.46875 L 5.859375 -11.46875 L 5.859375 -32.140625 L 2.1875 -32.140625 L 2.1875 -43.6875 L 18.734375 -43.6875 L 20.671875 -38.53125 C 21.128906 -39.113281 21.867188 -39.898438 22.890625 -40.890625 C 23.921875 -41.878906 25.175781 -42.796875 26.65625 -43.640625 C 28.144531 -44.492188 29.796875 -44.921875 31.609375 -44.921875 C 34.585938 -44.921875 36.9375 -44.539062 38.65625 -43.78125 C 40.375 -43.019531 41.6875 -42.144531 42.59375 -41.15625 C 43.5 -40.164062 44.1875 -39.316406 44.65625 -38.609375 C 46 -40.128906 47.71875 -41.5625 49.8125 -42.90625 C 51.914062 -44.25 54.488281 -44.921875 57.53125 -44.921875 C 61.09375 -44.921875 63.953125 -44.335938 66.109375 -43.171875 C 68.265625 -42.003906 69.910156 -40.425781 71.046875 -38.4375 C 72.191406 -36.457031 72.953125 -34.210938 73.328125 -31.703125 C 73.710938 -29.191406 73.90625 -26.59375 73.90625 -23.90625 L 73.90625 -11.828125 L 78.1875 -11.828125 L 78.1875 0 L 55.953125 0 L 55.953125 -21.453125 C 55.953125 -22.847656 55.96875 -24.394531 56 -26.09375 C 56.03125 -27.789062 55.828125 -29.25 55.390625 -30.46875 C 54.953125 -31.695312 54.03125 -32.3125 52.625 -32.3125 C 50.757812 -32.3125 49.519531 -31.710938 48.90625 -30.515625 C 48.289062 -29.316406 47.984375 -27.785156 47.984375 -25.921875 L 47.984375 -11.734375 L 53.234375 -11.734375 L 53.234375 0 L 30.5625 0 L 30.5625 -22.328125 C 30.5625 -25.890625 30.382812 -28.441406 30.03125 -29.984375 C 29.6875 -31.535156 28.632812 -32.3125 26.875 -32.3125 C 24.25 -32.3125 22.9375 -30.5625 22.9375 -27.0625 L 22.9375 -11.46875 L 28.1875 -11.46875 Z M 28.1875 0 "/></g></g></g><g fill="#023b7a" fill-opacity="1"><g transform="translate(282.497892, 696.318932)"><g><path d="M 2.1875 -61.203125 L 30.640625 -61.203125 C 35.722656 -61.203125 39.851562 -60.734375 43.03125 -59.796875 C 46.21875 -58.867188 48.671875 -57.570312 50.390625 -55.90625 C 52.109375 -54.238281 53.289062 -52.328125 53.9375 -50.171875 C 54.582031 -48.015625 54.90625 -45.679688 54.90625 -43.171875 C 54.90625 -39.785156 53.691406 -36.953125 51.265625 -34.671875 C 48.847656 -32.398438 45.828125 -31 42.203125 -30.46875 C 44.242188 -30.175781 46.125 -29.445312 47.84375 -28.28125 C 49.570312 -27.113281 50.972656 -25.640625 52.046875 -23.859375 C 53.128906 -22.078125 53.671875 -20.132812 53.671875 -18.03125 C 53.671875 -16.164062 53.832031 -14.707031 54.15625 -13.65625 C 54.476562 -12.601562 55.019531 -12.078125 55.78125 -12.078125 C 57.125 -12.078125 57.796875 -13.015625 57.796875 -14.890625 L 57.796875 -17.78125 L 63.65625 -17.78125 L 63.65625 -12.953125 C 63.65625 -10.566406 63.257812 -8.289062 62.46875 -6.125 C 61.6875 -3.96875 60.375 -2.234375 58.53125 -0.921875 C 56.695312 0.390625 54.144531 1.046875 50.875 1.046875 C 45.15625 1.046875 40.894531 -0.378906 38.09375 -3.234375 C 35.289062 -6.097656 33.890625 -10.097656 33.890625 -15.234375 C 33.890625 -17.921875 33.695312 -19.960938 33.3125 -21.359375 C 32.9375 -22.765625 32.132812 -23.742188 30.90625 -24.296875 C 29.6875 -24.847656 27.757812 -25.125 25.125 -25.125 L 25.125 -11.5625 L 30.46875 -11.5625 L 30.46875 0 L 2.1875 0 L 2.1875 -11.5625 L 7.09375 -11.5625 L 7.09375 -49.734375 L 2.1875 -49.734375 Z M 25.125 -49.828125 L 25.125 -34.9375 L 29.078125 -34.9375 C 31.640625 -34.9375 33.679688 -35.535156 35.203125 -36.734375 C 36.722656 -37.929688 37.484375 -39.695312 37.484375 -42.03125 C 37.484375 -44.59375 36.796875 -46.53125 35.421875 -47.84375 C 34.046875 -49.164062 32.078125 -49.828125 29.515625 -49.828125 Z M 25.125 -49.828125 "/></g></g></g><g fill="#023b7a" fill-opacity="1"><g transform="translate(350.09699, 696.318932)"><g><path d="M 6.828125 -29.953125 L 3.15625 -40.109375 C 4.320312 -40.804688 5.878906 -41.648438 7.828125 -42.640625 C 9.785156 -43.628906 12.003906 -44.488281 14.484375 -45.21875 C 16.972656 -45.957031 19.554688 -46.328125 22.234375 -46.328125 C 24.867188 -46.328125 27.570312 -46.046875 30.34375 -45.484375 C 33.113281 -44.929688 35.679688 -43.96875 38.046875 -42.59375 C 40.410156 -41.226562 42.320312 -39.375 43.78125 -37.03125 C 45.238281 -34.695312 45.96875 -31.78125 45.96875 -28.28125 L 45.96875 -11.203125 L 51.21875 -11.203125 L 51.21875 0 L 32.484375 0 L 30.390625 -3.9375 C 29.335938 -2.476562 28.082031 -1.335938 26.625 -0.515625 C 25.164062 0.296875 23.71875 0.859375 22.28125 1.171875 C 20.851562 1.492188 19.613281 1.65625 18.5625 1.65625 C 15.820312 1.65625 13.125 1.144531 10.46875 0.125 C 7.8125 -0.894531 5.617188 -2.484375 3.890625 -4.640625 C 2.171875 -6.796875 1.3125 -9.566406 1.3125 -12.953125 C 1.3125 -16.285156 2.140625 -19.144531 3.796875 -21.53125 C 5.460938 -23.925781 7.679688 -25.78125 10.453125 -27.09375 C 13.234375 -28.414062 16.257812 -29.078125 19.53125 -29.078125 C 22.09375 -29.078125 24.117188 -28.632812 25.609375 -27.75 C 27.097656 -26.875 27.957031 -26.289062 28.1875 -26 L 28.1875 -29.078125 C 28.1875 -31.054688 27.398438 -32.363281 25.828125 -33 C 24.253906 -33.644531 22.269531 -33.96875 19.875 -33.96875 C 17.3125 -33.96875 14.921875 -33.53125 12.703125 -32.65625 C 10.484375 -31.78125 8.523438 -30.878906 6.828125 -29.953125 Z M 28.1875 -12.609375 L 28.1875 -15.9375 C 28.070312 -16.164062 27.648438 -16.644531 26.921875 -17.375 C 26.191406 -18.101562 24.894531 -18.46875 23.03125 -18.46875 C 21.28125 -18.46875 19.992188 -18.03125 19.171875 -17.15625 C 18.359375 -16.28125 17.953125 -15.171875 17.953125 -13.828125 C 17.953125 -12.609375 18.40625 -11.617188 19.3125 -10.859375 C 20.21875 -10.097656 21.3125 -9.71875 22.59375 -9.71875 C 23.9375 -9.71875 25.101562 -10.035156 26.09375 -10.671875 C 27.082031 -11.316406 27.78125 -11.960938 28.1875 -12.609375 Z M 28.1875 -12.609375 "/></g></g></g><g fill="#023b7a" fill-opacity="1"><g transform="translate(405.699909, 696.318932)"><g><path d="M 1.3125 -43.78125 L 6.046875 -43.78125 L 6.046875 -51.84375 L 22.15625 -57 L 22.15625 -43.78125 L 30.46875 -43.78125 L 30.46875 -32.390625 L 22.15625 -32.390625 L 22.15625 -16.8125 C 22.15625 -15.820312 22.15625 -14.785156 22.15625 -13.703125 C 22.15625 -12.617188 22.34375 -11.695312 22.71875 -10.9375 C 23.101562 -10.1875 23.847656 -9.8125 24.953125 -9.8125 C 25.535156 -9.8125 26.394531 -9.96875 27.53125 -10.28125 C 28.675781 -10.601562 29.65625 -10.941406 30.46875 -11.296875 L 30.46875 -0.09375 C 29.59375 0.257812 28.453125 0.550781 27.046875 0.78125 C 25.648438 1.019531 24.28125 1.210938 22.9375 1.359375 C 21.59375 1.503906 20.570312 1.578125 19.875 1.578125 C 16.601562 1.578125 14.035156 1.148438 12.171875 0.296875 C 10.304688 -0.546875 8.945312 -1.78125 8.09375 -3.40625 C 7.25 -5.039062 6.707031 -6.984375 6.46875 -9.234375 C 6.238281 -11.484375 6.097656 -14.007812 6.046875 -16.8125 L 6.046875 -32.390625 L 1.3125 -32.390625 Z M 1.3125 -43.78125 "/></g></g></g><g fill="#023b7a" fill-opacity="1"><g transform="translate(440.550324, 696.318932)"><g/></g></g><g fill="#023b7a" fill-opacity="1"><g transform="translate(465.506097, 696.318932)"><g><path d="M 2.1875 0 L 2.1875 -11.640625 L 7.625 -11.640625 L 7.625 -49.640625 L 2.1875 -49.640625 L 2.1875 -61.203125 L 28.890625 -61.203125 C 35.953125 -61.203125 41.960938 -59.890625 46.921875 -57.265625 C 51.890625 -54.640625 55.671875 -51.078125 58.265625 -46.578125 C 60.867188 -42.085938 62.171875 -37.039062 62.171875 -31.4375 C 62.171875 -21.457031 59.265625 -13.722656 53.453125 -8.234375 C 47.648438 -2.742188 39.347656 0 28.546875 0 Z M 25.5625 -11.640625 L 28.890625 -11.640625 C 31.984375 -11.703125 34.492188 -12.625 36.421875 -14.40625 C 38.347656 -16.1875 39.765625 -18.5625 40.671875 -21.53125 C 41.578125 -24.507812 42.03125 -27.8125 42.03125 -31.4375 C 42.03125 -34.582031 41.578125 -37.539062 40.671875 -40.3125 C 39.765625 -43.09375 38.347656 -45.34375 36.421875 -47.0625 C 34.492188 -48.78125 31.984375 -49.640625 28.890625 -49.640625 L 25.5625 -49.640625 Z M 25.5625 -11.640625 "/></g></g></g><g fill="#023b7a" fill-opacity="1"><g transform="translate(531.616636, 696.318932)"><g><path d="M 38.796875 -14.53125 L 46.140625 -6.046875 C 42.929688 -3.242188 39.503906 -1.269531 35.859375 -0.125 C 32.210938 1.007812 28.109375 1.578125 23.546875 1.578125 C 20.867188 1.578125 18.15625 1.125 15.40625 0.21875 C 12.664062 -0.6875 10.171875 -2.085938 7.921875 -3.984375 C 5.671875 -5.878906 3.859375 -8.328125 2.484375 -11.328125 C 1.117188 -14.335938 0.4375 -17.945312 0.4375 -22.15625 C 0.4375 -26.9375 1.488281 -31.035156 3.59375 -34.453125 C 5.695312 -37.867188 8.523438 -40.476562 12.078125 -42.28125 C 15.640625 -44.09375 19.609375 -45 23.984375 -45 C 29.179688 -45 33.648438 -43.800781 37.390625 -41.40625 C 41.128906 -39.019531 43.640625 -35.988281 44.921875 -32.3125 C 45.265625 -31.320312 45.566406 -29.976562 45.828125 -28.28125 C 46.097656 -26.59375 46.203125 -24.796875 46.140625 -22.890625 C 46.085938 -20.992188 45.738281 -19.203125 45.09375 -17.515625 L 17.515625 -17.515625 C 17.691406 -16.753906 18.007812 -15.800781 18.46875 -14.65625 C 18.9375 -13.519531 19.785156 -12.515625 21.015625 -11.640625 C 22.242188 -10.765625 24.082031 -10.328125 26.53125 -10.328125 C 28.050781 -10.328125 29.890625 -10.53125 32.046875 -10.9375 C 34.203125 -11.351562 36.453125 -12.550781 38.796875 -14.53125 Z M 17.78125 -26.1875 L 31 -26.1875 C 31 -27.289062 30.835938 -28.378906 30.515625 -29.453125 C 30.191406 -30.535156 29.578125 -31.425781 28.671875 -32.125 C 27.765625 -32.832031 26.378906 -33.1875 24.515625 -33.1875 C 22.765625 -33.1875 21.40625 -32.75 20.4375 -31.875 C 19.476562 -31 18.804688 -30.019531 18.421875 -28.9375 C 18.046875 -27.851562 17.832031 -26.9375 17.78125 -26.1875 Z M 17.78125 -26.1875 "/></g></g></g><g fill="#023b7a" fill-opacity="1"><g transform="translate(582.140876, 696.318932)"><g><path d="M 6.828125 -29.953125 L 3.15625 -40.109375 C 4.320312 -40.804688 5.878906 -41.648438 7.828125 -42.640625 C 9.785156 -43.628906 12.003906 -44.488281 14.484375 -45.21875 C 16.972656 -45.957031 19.554688 -46.328125 22.234375 -46.328125 C 24.867188 -46.328125 27.570312 -46.046875 30.34375 -45.484375 C 33.113281 -44.929688 35.679688 -43.96875 38.046875 -42.59375 C 40.410156 -41.226562 42.320312 -39.375 43.78125 -37.03125 C 45.238281 -34.695312 45.96875 -31.78125 45.96875 -28.28125 L 45.96875 -11.203125 L 51.21875 -11.203125 L 51.21875 0 L 32.484375 0 L 30.390625 -3.9375 C 29.335938 -2.476562 28.082031 -1.335938 26.625 -0.515625 C 25.164062 0.296875 23.71875 0.859375 22.28125 1.171875 C 20.851562 1.492188 19.613281 1.65625 18.5625 1.65625 C 15.820312 1.65625 13.125 1.144531 10.46875 0.125 C 7.8125 -0.894531 5.617188 -2.484375 3.890625 -4.640625 C 2.171875 -6.796875 1.3125 -9.566406 1.3125 -12.953125 C 1.3125 -16.285156 2.140625 -19.144531 3.796875 -21.53125 C 5.460938 -23.925781 7.679688 -25.78125 10.453125 -27.09375 C 13.234375 -28.414062 16.257812 -29.078125 19.53125 -29.078125 C 22.09375 -29.078125 24.117188 -28.632812 25.609375 -27.75 C 27.097656 -26.875 27.957031 -26.289062 28.1875 -26 L 28.1875 -29.078125 C 28.1875 -31.054688 27.398438 -32.363281 25.828125 -33 C 24.253906 -33.644531 22.269531 -33.96875 19.875 -33.96875 C 17.3125 -33.96875 14.921875 -33.53125 12.703125 -32.65625 C 10.484375 -31.78125 8.523438 -30.878906 6.828125 -29.953125 Z M 28.1875 -12.609375 L 28.1875 -15.9375 C 28.070312 -16.164062 27.648438 -16.644531 26.921875 -17.375 C 26.191406 -18.101562 24.894531 -18.46875 23.03125 -18.46875 C 21.28125 -18.46875 19.992188 -18.03125 19.171875 -17.15625 C 18.359375 -16.28125 17.953125 -15.171875 17.953125 -13.828125 C 17.953125 -12.609375 18.40625 -11.617188 19.3125 -10.859375 C 20.21875 -10.097656 21.3125 -9.71875 22.59375 -9.71875 C 23.9375 -9.71875 25.101562 -10.035156 26.09375 -10.671875 C 27.082031 -11.316406 27.78125 -11.960938 28.1875 -12.609375 Z M 28.1875 -12.609375 "/></g></g></g><g fill="#023b7a" fill-opacity="1"><g transform="translate(637.743817, 696.318932)"><g><path d="M 27.75 0 L 2.1875 0 L 2.1875 -11.46875 L 5.953125 -11.46875 L 5.953125 -54.375 L 2.28125 -54.375 L 2.28125 -65.671875 L 22.59375 -65.671875 L 22.59375 -11.46875 L 27.75 -11.46875 Z M 27.75 0 "/></g></g></g><g fill="#023b7a" fill-opacity="1"><g transform="translate(669.879784, 696.318932)"><g><path d="M 1.3125 0 L 1.3125 -15.765625 L 13.046875 -15.765625 C 13.046875 -14.242188 13.644531 -13.046875 14.84375 -12.171875 C 16.039062 -11.296875 17.367188 -10.695312 18.828125 -10.375 C 20.285156 -10.050781 21.453125 -9.890625 22.328125 -9.890625 C 23.203125 -9.890625 24.0625 -10.078125 24.90625 -10.453125 C 25.757812 -10.835938 26.1875 -11.644531 26.1875 -12.875 C 26.1875 -13.75 25.539062 -14.429688 24.25 -14.921875 C 22.96875 -15.421875 21.347656 -15.90625 19.390625 -16.375 C 17.441406 -16.84375 15.414062 -17.425781 13.3125 -18.125 C 11.320312 -18.820312 9.4375 -19.738281 7.65625 -20.875 C 5.875 -22.019531 4.425781 -23.492188 3.3125 -25.296875 C 2.207031 -27.109375 1.65625 -29.390625 1.65625 -32.140625 C 1.65625 -34.359375 2.148438 -36.269531 3.140625 -37.875 C 4.140625 -39.476562 5.425781 -40.789062 7 -41.8125 C 8.582031 -42.832031 10.257812 -43.585938 12.03125 -44.078125 C 13.8125 -44.578125 15.492188 -44.828125 17.078125 -44.828125 C 20.054688 -44.828125 22.738281 -44.15625 25.125 -42.8125 C 27.519531 -41.46875 29.1875 -39.863281 30.125 -38 L 30.828125 -43.78125 L 41.59375 -43.78125 L 41.59375 -28.015625 L 30.203125 -28.015625 C 30.203125 -29.242188 29.765625 -30.351562 28.890625 -31.34375 C 28.015625 -32.34375 26.890625 -33.144531 25.515625 -33.75 C 24.148438 -34.363281 22.738281 -34.671875 21.28125 -34.671875 C 20.34375 -34.671875 19.535156 -34.421875 18.859375 -33.921875 C 18.191406 -33.429688 17.859375 -32.628906 17.859375 -31.515625 C 17.859375 -30.703125 18.367188 -30.019531 19.390625 -29.46875 C 20.410156 -28.914062 21.738281 -28.375 23.375 -27.84375 C 25.007812 -27.320312 26.765625 -26.738281 28.640625 -26.09375 C 30.847656 -25.332031 33.03125 -24.457031 35.1875 -23.46875 C 37.351562 -22.476562 39.148438 -21.101562 40.578125 -19.34375 C 42.015625 -17.59375 42.734375 -15.171875 42.734375 -12.078125 C 42.734375 -9.335938 41.957031 -6.988281 40.40625 -5.03125 C 38.863281 -3.070312 36.863281 -1.566406 34.40625 -0.515625 C 31.957031 0.523438 29.300781 1.046875 26.4375 1.046875 C 23.289062 1.046875 20.535156 0.390625 18.171875 -0.921875 C 15.804688 -2.234375 14.097656 -3.707031 13.046875 -5.34375 L 12.265625 0 Z M 1.3125 0 "/></g></g></g></svg>